<?xml version="1.0" encoding="utf-8"?>
<svg viewBox="0 0 500 500" xmlns="http://www.w3.org/2000/svg">
  <defs>
    <clipPath id="cut-off-bottom">
      <path fill="#ec4899" d="M 0 500 L 500 500 L 500 0 Z"/>
    </clipPath>
  </defs>
  <path fill="#581c87" d="M 0 0 L 0 500 L 500 500 L 500 200 L 280 200 L 280 300 L 412 300 L 412 412 L 100 412 L 100 300 L 200 300 L 200 200 L 100 200 L 100 100 L 500 100 L 500 0 Z"/>
  <path fill="#ec4899" clip-path="url(#cut-off-bottom)" d="M 0 0 L 0 500 L 500 500 L 500 200 L 280 200 L 280 300 L 412 300 L 412 412 L 100 412 L 100 300 L 200 300 L 200 200 L 100 200 L 100 100 L 500 100 L 500 0 Z"/>
</svg>
